<svg xmlns="http://www.w3.org/2000/svg" xmlns:xlink="http://www.w3.org/1999/xlink"><defs><clipPath id="a"><path fill="#fff" d="M0 0h30v32H0z"/></clipPath><clipPath id="a"><path fill="#fff" d="M0 0h33v38H0z"/></clipPath><clipPath id="a"><path fill="#fff" transform="translate(7)" d="M0 0h36v50H0z"/></clipPath><filter id="b" x="3" y="0" width="44" height="58" filterUnits="userSpaceOnUse" color-interpolation-filters="sRGB"><feFlood flood-opacity="0" result="BackgroundImageFix"/><feColorMatrix in="SourceAlpha" values="0 0 0 0 0 0 0 0 0 0 0 0 0 0 0 0 0 0 127 0" result="hardAlpha"/><feOffset dy="4"/><feGaussianBlur stdDeviation="2"/><feComposite in2="hardAlpha" operator="out"/><feColorMatrix values="0 0 0 0 0 0 0 0 0 0 0 0 0 0 0 0 0 0 0.25 0"/><feBlend in2="BackgroundImageFix" result="effect1_dropShadow_94_6"/><feBlend in="SourceGraphic" in2="effect1_dropShadow_94_6" result="shape"/></filter><clipPath id="a"><path fill="#fff" transform="translate(0 44)" d="M0 0h268v112H0z"/></clipPath></defs><symbol id="arrow"><path stroke="#000" stroke-width="2" d="M0 6h18"/><path d="m24 6-6.75 5.196V.804L24 6Z" fill="#000"/></symbol><symbol id="button-slider"><path d="M8 0 0 9l8 9V0ZM24 9l-8-9v18l8-9Z"/></symbol><symbol id="icon-eat" viewBox="0 0 26 30"><path fill-rule="evenodd" clip-rule="evenodd" d="M19.12.08a1 1 0 0 1 1.09.21c.9.91 2.1 2.88 3.06 5.92A42.6 42.6 0 0 1 25 19a1 1 0 0 1-1 1h-3.5v9a1 1 0 1 1-2 0V1a1 1 0 0 1 .62-.92ZM20.5 18H23a39.62 39.62 0 0 0-1.64-11.19 22.4 22.4 0 0 0-.86-2.3V18ZM6.5 0a1 1 0 0 1 1 1v28a1 1 0 1 1-2 0V1a1 1 0 0 1 1-1Z" fill="#fff"/><path fill-rule="evenodd" clip-rule="evenodd" d="M2 0a1 1 0 0 1 1 1v5.5c0 .56.2 1.32.7 1.92.48.56 1.31 1.08 2.8 1.08a1 1 0 1 1 0 2 5.41 5.41 0 0 1-4.33-1.8A5.07 5.07 0 0 1 1 6.5V1a1 1 0 0 1 1-1Z" fill="#fff"/><path fill-rule="evenodd" clip-rule="evenodd" d="M11 0a1 1 0 0 0-1 1v5.5c0 .56-.2 1.32-.7 1.92-.48.56-1.31 1.08-2.8 1.08a1 1 0 0 0 0 2 5.4 5.4 0 0 0 4.33-1.8A5.07 5.07 0 0 0 12 6.5V1a1 1 0 0 0-1-1Z" fill="#fff"/></symbol><symbol id="icon-gift" viewBox="0 0 78 81"><path d="M64.02 35.63H14.03a3.18 3.18 0 0 1-3.18-3.16V23a3.18 3.18 0 0 1 3.18-3.16h49.98A3.17 3.17 0 0 1 67.2 23v9.47a3.17 3.17 0 0 1-3.18 3.16ZM14.03 22.26c-.4 0-.74.34-.74.74v9.47c0 .4.33.74.74.74h49.98c.41 0 .75-.33.75-.74V23c0-.4-.34-.74-.75-.74H14.03Z" fill="#fff"/><path d="M57.04 68.08H21a6.11 6.11 0 0 1-6.13-6.09V34.42c0-.67.55-1.21 1.22-1.21.68 0 1.22.54 1.22 1.21v27.57A3.68 3.68 0 0 0 21 65.66h36.04a3.68 3.68 0 0 0 3.7-3.67V34.42a1.22 1.22 0 0 1 2.44 0v27.57a6.11 6.11 0 0 1-6.14 6.1Z" fill="#fff"/><path d="M39.02 68.08c-.67 0-1.22-.54-1.22-1.2V34.42c0-.67.55-1.21 1.22-1.21.68 0 1.22.54 1.22 1.21v32.45c0 .67-.54 1.21-1.22 1.21ZM23.81 22.26a7.81 7.81 0 0 1-3.17-10.6A7.9 7.9 0 0 1 31.3 8.5c5.82 3.13 8.96 11.86 9.09 12.23l-2.3.8c-.03-.08-2.96-8.22-7.95-10.9a5.45 5.45 0 0 0-7.36 2.17 5.4 5.4 0 0 0 2.2 7.33l-1.17 2.13Z" fill="#fff"/><path d="m54.23 22.26-1.16-2.14a5.38 5.38 0 0 0-1.03-9.92 5.42 5.42 0 0 0-4.14.43c-4.98 2.68-7.91 10.82-7.94 10.9l-2.3-.8c.13-.37 3.27-9.1 9.08-12.23a7.86 7.86 0 0 1 11.29 9.1c-.6 2-1.95 3.66-3.8 4.66Zm7.72 29.6H16.09c-.67 0-1.22-.55-1.22-1.21 0-.67.55-1.22 1.22-1.22h45.86a1.21 1.21 0 1 1 0 2.42Z" fill="#fff"/></symbol><symbol id="icon-leaf" viewBox="0 0 30 32"><g clip-path="url(#a)"><path d="M27.84 2.77a.95.95 0 0 0-.9-.77h-.01c-4.94.03-16.95.92-21.8 8.38-2.51 3.88-2.73 8.91-.64 14.96l.07.13a25.93 25.93 0 0 0-1.04 3.32 1 1 0 0 0 .72 1.19l.2.02c.43 0 .81-.32.9-.79.03-.1 2.42-10.37 10.86-16.38.43-.3.55-.93.26-1.38a.9.9 0 0 0-1.3-.28c-4.79 3.4-7.74 8-9.47 11.65-1.24-4.57-.92-8.37.99-11.3 3.74-5.76 12.62-7.15 17.98-7.45-1.16 1.8-2.41 5.1-2.41 10.93 0 3.12-.83 5.52-2.47 7.14-2.62 2.6-6.88 2.83-10 2.58-.51-.04-.96.38-1 .93-.04.55.35 1.03.86 1.07.63.05 1.3.08 1.98.08 3.18 0 6.87-.66 9.43-3.2 2.04-2 3.07-4.9 3.07-8.6 0-9.1 3.22-11.1 3.23-11.1.4-.21.6-.68.5-1.13Z" fill="#fff"/></g></symbol><symbol id="icon-powder" viewBox="0 0 27 29"><path d="M11.38 0c-1.64 0-2.9 1.36-2.9 3.08s1.26 3.08 2.9 3.08c1.63 0 2.9-1.36 2.9-3.08S13.01 0 11.38 0Zm0 1.18c1 0 1.72.84 1.72 1.9 0 1-.8 1.9-1.72 1.9-1 0-1.73-.84-1.73-1.9 0-1 .78-1.9 1.72-1.9ZM.5 24.74c0 1.18.4 2.18 1.36 3 1 .84 2.17.77 2.17.77h19.04c.77 0 1.8-.38 2.62-1.45.85-1 .8-2.36.8-2.36V7.49c0-.44-.12-.6-.75-.6-.64 0-.69.27-.69.59V24.7c-.02.3-.07 1.08-.74 1.72-.74.62-1.45.54-1.45.54s-18.13 0-19.03-.03a2.14 2.14 0 0 1-1.45-.9c-.51-.73-.41-1.63-.41-1.63V7.18c0-.46-.24-.64-.73-.64s-.74.18-.74.58v17.62ZM16.81 8.43c-1.08.23-2.17.38-4.26 2.35-2.08 2-3.62 1.9-5.16 1.82-1.54-.1-3.17-1.54-3.45-1.9-.33-.36-.9-.12-1.08.11-.16.24-.16.64.1 1 1.27 1.18 2.45 2.08 4.72 2.26a7.5 7.5 0 0 0 5.89-2.26c1.45-1.45 2.17-1.72 3.26-1.9a6.3 6.3 0 0 1 5.08 1.26c1 1.1 1.26.78 1.54.48.54-.72-.23-1.27-1.1-1.9a7.24 7.24 0 0 0-5.52-1.28l-.02-.04Zm-9.06 7.16c-1.18 0-2.08 1-2.08 2.26 0 1.27.9 2.27 2.08 2.27 1.18 0 2.08-1 2.08-2.27s-.9-2.26-2.08-2.26Zm11.78.78c-1.54 0-2.8 1.36-2.8 2.99 0 1.63 1.26 2.99 2.8 2.99 1.54 0 2.81-1.36 2.81-3 0-1.62-1.27-2.98-2.8-2.98Zm0 1.45c.8 0 1.45.7 1.45 1.54a1.5 1.5 0 0 1-1.45 1.54c-.8 0-1.45-.7-1.45-1.54 0-.86.65-1.54 1.45-1.54Z" fill="#fff"/></symbol><symbol id="icon-time" viewBox="0 0 27 31"><path d="M6.12 0c-1.07 0-1.07 1.58 0 1.58h6.67v1.6A13.21 13.21 0 0 0 .56 16.48c0 4.02 1.75 7.64 4.52 10.07.48.43.54 1.18.1 1.64l-1.53 1.55c-.75.69.36 1.75 1.03 1l2-2.03c.36-.34.88-.43 1.32-.21a12.79 12.79 0 0 0 11.1.06c.43-.21.96-.13 1.3.21l1.95 1.97c.68.64 1.66-.31 1.04-1l-1.45-1.48c-.45-.45-.38-1.2.1-1.63a13.47 13.47 0 0 0 4.62-10.16A13.2 13.2 0 0 0 14.39 3.19v-1.6h6.67c1.06 0 1.06-1.59 0-1.59H6.12ZM2 16.47C2 9.94 7.2 4.65 13.6 4.65c6.41 0 11.6 5.3 11.6 11.82 0 6.55-5.19 11.85-11.6 11.85-6.4 0-11.6-5.3-11.6-11.85Zm10.8-8.09c0-1.1 1.66-1.1 1.66 0v8.63c0 .23-.09.44-.25.6a.86.86 0 0 1-.6.25.82.82 0 0 1-.57-.23.8.8 0 0 1-.24-.56V8.38ZM7.8 11c.31 0 .61-.12.83-.34a1.14 1.14 0 0 0-.82-1.96c-.3.02-.56.16-.75.37a1.14 1.14 0 0 0 .75 1.92Zm11.6 0c.31 0 .6-.12.82-.34a1.14 1.14 0 0 0-.82-1.96 1.14 1.14 0 0 0 0 2.29ZM8.97 23.59c0 1.53-2.33 1.53-2.33 0s2.33-1.53 2.33 0Zm4.64 3.44a1.18 1.18 0 0 0 1.17-.68 1.14 1.14 0 0 0-.7-1.56 1.17 1.17 0 0 0-1.22.32 1.14 1.14 0 0 0 .75 1.92ZM5.49 16.64a1.14 1.14 0 0 1-.69 1.17 1.17 1.17 0 0 1-1.57-.7 1.14 1.14 0 0 1 .32-1.2 1.17 1.17 0 0 1 1.94.73Zm17.39 1.15a1.17 1.17 0 0 0 1.17-.68 1.14 1.14 0 0 0-.7-1.55 1.17 1.17 0 0 0-1.22.32 1.14 1.14 0 0 0 .75 1.91Zm-2.32 5.8c0 1.53-2.32 1.53-2.32 0s2.32-1.53 2.32 0Z" fill="#fff"/></symbol><symbol id="logo-academy"><path d="M13.643.016 13.5 0 0 1.407v24.606L13.5 34 27 26.013V1.407L13.643.016Zm11.591 25L13.5 31.956 1.766 25.015V14.93l11.685 6.916.02 1.253-8.017-4.743-.011 1.225 8.046 4.809.02 1.286-8.045-4.758-.01 1.226L13.5 26.95l8.124-4.833V16.91l3.62-2.15-.01 10.256Zm0-11.564-3.22 1.88-1.482.875-7.065-4.187-.011 1.225 6.04 3.573-.053.031-.13.076-.86.492-4.986-2.948-.011 1.225 3.936 2.328-.933.61-.021.012-2.971-1.742-.011 1.225 1.947 1.135-1.988 1.186-11.618-6.872 11.638-6.958 11.8 6.834Zm0-1.225L13.44 5.31 1.766 12.22V2.99L13.5 1.764 25.234 2.99v9.237Z"/></symbol><symbol id="logo-desktop"><path d="M59.743 23.806A25.423 25.423 0 0 0 51.71 13.43a25.632 25.632 0 0 0-12.165-5.02 25.688 25.688 0 0 0-13.062 1.671 25.536 25.536 0 0 0-10.491 7.916 25.327 25.327 0 0 0-5.132 12.06 25.267 25.267 0 0 0 1.59 12.997 25.417 25.417 0 0 0 7.892 10.484 25.629 25.629 0 0 0 12.094 5.184 113.224 113.224 0 0 1-1.686-6.794c1.509.973 3.098 1.819 4.749 2.529 0 0 .12 2.142.28 4.533 1.783.03 3.566-.126 5.317-.466a2.108 2.108 0 0 1 0-.754c.29-1.855 1.088-5.198 1.247-7.35a15.108 15.108 0 0 0 2.894-3.68l-.06.436c-.549 4.226-1.696 8.74-2.395 9.989a5.534 5.534 0 0 1-.828 1.14 25.646 25.646 0 0 0 9.918-4.727 25.467 25.467 0 0 0 7.004-8.43 25.303 25.303 0 0 0 .867-21.341Zm-1.466 3.76c-.44.426-1.347.714-1.497-.576-.15-1.29-.19-2.192-.19-2.192s-1.925-3.402-2.643-3.442c-.719-.04-5.817 3.442-7.164 4.96-1.167 1.28-1.397 1.19-1.397 3.442 0 1.696.22 8.104.1 13.004l-8.131 2.153a64.17 64.17 0 0 1-7.783 1.706l-.997-5.783h-.14l-2.564-13.064s-3.801-1.428-5.198-1.815a3.772 3.772 0 0 0-3.991.625 5.005 5.005 0 0 0-1.726 3.819c.21.46.371.943.479 1.438.05.476-1.197.426-1.996.426-.798 0-.918-1.428-.289-3.104a22.571 22.571 0 0 1 1.816-3.71 11.776 11.776 0 0 1 2.065-2.867s.14-.337 1.247-.238c1.108.1 7.264.427 7.264.427l.05-2.252a143.265 143.265 0 0 1 20.193-1.33v1.816a22.576 22.576 0 0 1 8.122-1.984.912.912 0 0 1 .768.387c.34.427 2.405 2.976 2.644 3.343.67.953 1.28 1.947 1.826 2.976a6.174 6.174 0 0 1-.868 1.825v.01Z" fill="#FDC305"/><path d="M56.331 21.495c.47.595.878 1.121.998 1.28.67.953 1.28 1.947 1.826 2.976-.19.63-.48 1.226-.858 1.765-.44.427-1.347.714-1.497-.575-.15-1.29-.21-2.143-.21-2.143s-1.925-3.402-2.643-3.442c-.719-.04-5.817 3.442-7.164 4.96-1.167 1.28-1.397 1.19-1.397 3.442 0 1.488.17 6.596.13 11.14 1.806.198 4.46.694 5.258 1.864 0 0-.29-7.122 7.792-3.392 0 0 .28-9.711 11.434-7.221a43.584 43.584 0 0 0-13.669-10.654ZM45.825 19.194a89.212 89.212 0 0 0-1.397-16.397s-.15-1.29-.868-.238a14.084 14.084 0 0 0-1.197 3.968 71.13 71.13 0 0 0-12.79.337c-.819-2.728-2.215-3.968-2.884-3.64-.669.327-.748 3.253-.748 3.253l-.33 14.046a143.275 143.275 0 0 1 20.214-1.33Z" fill="#F06351"/><path d="M45.246 46.74c.13-1.062.2-2.47.24-4.028l-8.132 2.153a64.152 64.152 0 0 1-7.782 1.756l1.108 4.96c0 .108 0 .218.07.327 1.509.973 3.097 1.82 4.748 2.53a42.36 42.36 0 0 0 6.864-4.098v.06a15.113 15.113 0 0 0 2.884-3.66Z" fill="#E55645"/><path d="M31.927 16.09c-.05-.1.998.674 1.407.912.409.238.608.416.608.585 0 .169-.26.337-.618.337-.36 0-.918-.119-.998-.258-.08-.139.599 0 .938 0h.29a8.043 8.043 0 0 1-1.627-1.577ZM39.41 16.198s-.998 1.27-1.088 1.33c-.09.059-.17.337.19.287.412-.061.82-.154 1.217-.278.11-.06.07-.198-.12-.178-.19.02-.678.05-.997.109l.848-1.26s.03-.119-.05-.01ZM36.277 22.259a2.29 2.29 0 0 0 1.087-.992c.28-.655 0-.903-.438-.992a2.456 2.456 0 0 0-1.746.337c-.39.367-.34.724 0 .992.337.263.705.483 1.097.655Z" fill="#000"/><path d="M35.918 23.509c-.115.225-.27.427-.46.595-.283.227-.633.36-.997.377a2.184 2.184 0 0 1-1.536-.437 1.993 1.993 0 0 1-.53-.446 1 1 0 0 0-.358-.248s.748 4.077 2.564 4.731c1.816.655 2.155-.753 2.205-1.13a5.56 5.56 0 0 0-.819-3.214c0-.298-.02-.1-.07-.228Z" fill="#F06351"/><path d="M34.222 24.64a3.504 3.504 0 0 1-2.345-1.419.149.149 0 0 1 0-.198.138.138 0 0 1 .1-.042.14.14 0 0 1 .1.042 3.203 3.203 0 0 0 2.105 1.3 2.112 2.112 0 0 0 1.636-.993l.14-.188.1.218s.378.754.997.794c.619.04 1.057-.417 1.626-1.28a.144.144 0 0 1 .24.159c-.666.972-1.294 1.438-1.886 1.398a1.551 1.551 0 0 1-1.117-.724 2.251 2.251 0 0 1-1.696.933Z" fill="#000"/><path d="M36.177 37.99c2.066 0 3.741-1.665 3.741-3.719s-1.675-3.72-3.74-3.72c-2.067 0-3.742 1.666-3.742 3.72 0 2.054 1.675 3.72 3.741 3.72Z" fill="#FDC305"/><path d="m41.136 31.246-3.123 1.3 1.147-5.585-7.482 9.68 3.122-1.298-1.147 5.594 7.483-9.691Zm-7.373 3.799 4.15-5.366-.808 3.967 1.995-.813-4.18 5.376.808-3.968-1.965.804ZM32.366 33.587c.617 0 1.117-.498 1.117-1.111 0-.614-.5-1.111-1.117-1.111s-1.117.497-1.117 1.11c0 .614.5 1.112 1.117 1.112ZM38.871 37.614c.435 0 .788-.35.788-.784a.786.786 0 0 0-.788-.783.786.786 0 0 0-.788.783c0 .433.353.784.788.784ZM39.829 35.462a.348.348 0 1 0 0-.694.348.348 0 0 0-.35.346c0 .192.157.348.35.348Z" fill="#111"/><path d="M45.775 20.99a57.14 57.14 0 0 0-5.078 5.167 31.744 31.744 0 0 1-5.298 4.86c-.22-.525-1.626-1.507-1.626-1.507s-3.133-2.133-5.188-3.81a31.736 31.736 0 0 1-3.133-2.975l-1.996-.109a22.57 22.57 0 0 0 11.973 8.769c.858-.14 3.272-1.855 5.078-3.254a57.362 57.362 0 0 0 5.987-5.862 6.318 6.318 0 0 0 1.137-1.984c-1.137.377-1.856.704-1.856.704Z" fill="#F06351"/><path d="m65.07 3.472-8.44 9.364-1.217-1.974L63.544 0l1.527 3.472ZM62.507 17.12l5.527-4.076-.778-3.71-5.388 4.771.639 3.016ZM59.783 48.972l6.116 3.154 3.003-2.321-6.674-2.728-2.445 1.895ZM1.945 5.922l3.063-3.333 9.269 8.927-1.217 2.262L1.944 5.922ZM7.363 16.149l-4.69-3.105L.28 16.883l5.138 2.38 1.946-3.114ZM13.878 52.126l-4.54 3.323L12.133 59l4.01-3.988-2.264-2.886Z" fill="#FDC305"/><path d="M25.87 27.774s-3.8-1.428-5.197-1.815a3.771 3.771 0 0 0-3.991.625 5.004 5.004 0 0 0-1.726 3.819c.21.46.371.943.479 1.438.05.476-1.198.426-1.996.426s-.918-1.428-.29-3.104a22.571 22.571 0 0 1 1.817-3.71C9.528 28.27 0 34.777 0 34.777a45.981 45.981 0 0 1 8.171.238c5.238.526 4.989 4.632 4.989 4.632a38.754 38.754 0 0 1 5.617-1.1c2.115-.14 2.265 2.102 2.265 2.102l.529 3.83a18.221 18.221 0 0 1 2.644-2.342 6.07 6.07 0 0 1 4.37-1.29L25.87 27.775Z" fill="#F06351"/></symbol><symbol id="logo-mobile"><g clip-path="url(#a)"><path d="M6.012 20.935V18.65a139.135 139.135 0 0 1 19.976-1.343c0 .606 0 1.222-.06 1.838 1.9-.86 3.896-1.477 5.943-1.838a16.767 16.767 0 0 0-6.767-8.285 16.248 16.248 0 0 0-10.306-2.398c-3.6.374-6.98 1.945-9.62 4.47a16.948 16.948 0 0 0-4.99 9.506l5.824.334ZM26.978 24.481c-1.149 1.293-1.376 1.213-1.376 3.486v9.275a16.692 16.692 0 0 0 5.425-6.052A17.08 17.08 0 0 0 33 23.237c-.013-1.051-.12-2.1-.317-3.132a32.856 32.856 0 0 0-5.705 4.375ZM6.299 25.987s-3.754-1.455-5.14-1.85A8.33 8.33 0 0 0 0 23.856a17.066 17.066 0 0 0 2.463 8.233A16.633 16.633 0 0 0 8.598 38L6.299 25.987Z" fill="#FDC305"/><path d="M26.038 17.297A92.52 92.52 0 0 0 24.65.657s-.139-1.304-.881-.243a14.583 14.583 0 0 0-1.189 3.981 68.295 68.295 0 0 0-12.647.344C9.15 2.02 7.774.758 7.11 1.01c-.664.253-.713 3.345-.713 3.345L6.071 18.6a139.094 139.094 0 0 1 19.967-1.303Z" fill="#F06351"/><path d="M12.29 14.145c0-.09.991.687 1.397.93.406.242.604.424.604.596s-.267.343-.623.343c-.357 0-.902-.12-.99-.272h1.217a8.34 8.34 0 0 1-1.604-1.597ZM19.699 14.256l-1.08 1.344c0 .06-.168.354.179.303.41-.062.814-.16 1.208-.293.109 0 .07-.192-.109-.172-.178.02-.683.051-.99.112l.832-1.274s.069-.13-.04-.02ZM16.59 20.41c.458-.207.838-.562 1.079-1.01.277-.658 0-.92-.436-1.011a2.367 2.367 0 0 0-1.723.343c-.387.364-.337.728-.05 1.01.348.27.727.494 1.13.668Z" fill="#000"/><path d="M16.193 21.672c-.111.231-.266.437-.456.607a1.693 1.693 0 0 1-.99.384 2.1 2.1 0 0 1-1.456-.435 2.289 2.289 0 0 1-.525-.444 1.059 1.059 0 0 0-.356-.263s.742 4.142 2.545 4.8c1.803.656 2.12-.759 2.179-1.143a5.758 5.758 0 0 0-.812-3.263c-.02-.313-.03-.111-.129-.243Z" fill="#F06351"/><path d="M14.569 22.824a3.364 3.364 0 0 1-1.3-.474 3.437 3.437 0 0 1-1.039-1.007.145.145 0 0 1 .076-.187.136.136 0 0 1 .153.031 3.22 3.22 0 0 0 2.09 1.314c.328-.025.646-.13.927-.306.28-.176.516-.417.687-.704l.139-.192.099.212s.366.768.99.808c.624.04 1.04-.414 1.595-1.293a.138.138 0 0 1 .198 0c.032.02.055.053.064.09a.154.154 0 0 1-.015.112c-.633 1.01-1.257 1.455-1.861 1.414a1.518 1.518 0 0 1-.642-.253 1.555 1.555 0 0 1-.468-.514 2.255 2.255 0 0 1-.74.67c-.294.165-.62.26-.953.28Z" fill="#000"/><path d="M25.988 19.116a58.7 58.7 0 0 0-5.021 5.244 31.579 31.579 0 0 1-5.24 4.94c-.217-.535-1.604-1.525-1.604-1.525s-3.1-2.162-5.13-3.86a34.1 34.1 0 0 1-3.1-3.03l-1.98-.112c2.861 4.25 7.05 7.384 11.884 8.892.852-.142 3.238-1.88 5.021-3.294a58.146 58.146 0 0 0 5.883-5.951c.498-.596.88-1.281 1.13-2.021-1.09.394-1.843.717-1.843.717Z" fill="#F06351"/></g></symbol><symbol id="logo-tablet"><path d="M51.208 19.05a22.293 22.293 0 0 0-6.886-9.125A21.672 21.672 0 0 0 33.896 5.51a21.504 21.504 0 0 0-11.197 1.469 21.954 21.954 0 0 0-8.992 6.962 22.581 22.581 0 0 0-4.399 10.607 22.76 22.76 0 0 0 1.364 11.433 22.31 22.31 0 0 0 6.763 9.22 21.684 21.684 0 0 0 10.367 4.56c-.496-1.823-1-3.839-1.446-5.976 1.294.856 2.656 1.6 4.071 2.225 0 0 .103 1.884.24 3.987 1.529.027 3.057-.11 4.558-.41a1.908 1.908 0 0 1 0-.663c.248-1.632.932-4.572 1.069-6.465a13.243 13.243 0 0 0 2.48-3.237l-.052.384c-.47 3.716-1.453 7.686-2.052 8.785a4.865 4.865 0 0 1-.71 1.004 21.747 21.747 0 0 0 8.501-4.158 22.278 22.278 0 0 0 6.004-7.416 22.77 22.77 0 0 0 .743-18.77Zm-1.257 3.308c-.376.375-1.154.628-1.283-.507a30.81 30.81 0 0 1-.162-1.928s-1.65-2.992-2.266-3.027c-.616-.035-4.986 3.027-6.14 4.362-1.001 1.126-1.198 1.047-1.198 3.028 0 1.491.188 7.127.086 11.437l-6.97 1.894a53.797 53.797 0 0 1-6.67 1.5l-.856-5.086h-.12l-2.197-11.49s-3.259-1.257-4.456-1.597a3.157 3.157 0 0 0-1.79-.235 3.189 3.189 0 0 0-1.63.785 4.418 4.418 0 0 0-1.1 1.515 4.499 4.499 0 0 0-.38 1.844c.18.405.318.83.41 1.265.043.419-1.026.375-1.71.375-.684 0-.787-1.256-.248-2.73.42-1.135.941-2.227 1.556-3.264a10.352 10.352 0 0 1 1.77-2.521s.12-.297 1.07-.21c.949.088 6.225.375 6.225.375l.043-1.98a119.71 119.71 0 0 1 17.31-1.169v1.597a18.947 18.947 0 0 1 6.96-1.745.765.765 0 0 1 .659.34c.29.375 2.06 2.617 2.266 2.94a24.51 24.51 0 0 1 1.565 2.617 5.493 5.493 0 0 1-.744 1.606v.009Z" fill="#FDC305"/><path d="M48.284 17.018c.402.523.752.986.855 1.125a24.51 24.51 0 0 1 1.565 2.618 5.493 5.493 0 0 1-.735 1.553c-.377.375-1.155.628-1.283-.506-.128-1.134-.18-1.885-.18-1.885s-1.65-2.992-2.266-3.027c-.616-.035-4.986 3.027-6.14 4.362-1 1.126-1.197 1.047-1.197 3.028 0 1.308.145 5.801.11 9.797 1.549.175 3.823.61 4.508 1.64 0 0-.248-6.264 6.679-2.983 0 0 .239-8.542 9.8-6.352a37.507 37.507 0 0 0-11.716-9.37ZM39.279 14.994A80.462 80.462 0 0 0 38.08.572s-.128-1.134-.744-.209a12.63 12.63 0 0 0-1.026 3.49 59.424 59.424 0 0 0-10.963.296C24.647 1.75 23.449.66 22.876.948c-.573.287-.641 2.861-.641 2.861l-.282 12.354c5.74-.809 11.53-1.2 17.326-1.169Z" fill="#F06351"/><path d="M38.782 39.222c.111-.934.171-2.172.205-3.542l-6.97 1.893a53.8 53.8 0 0 1-6.67 1.544l.95 4.363c0 .096 0 .191.06.287 1.294.856 2.655 1.6 4.07 2.225a36.127 36.127 0 0 0 5.884-3.603v.052a13.243 13.243 0 0 0 2.471-3.22Z" fill="#E55645"/><path d="M27.366 12.263c-.043-.087.855.594 1.206.803.35.21.521.366.521.515 0 .148-.222.296-.53.296-.308 0-.787-.104-.855-.227-.068-.122.513 0 .804 0h.248a6.98 6.98 0 0 1-1.394-1.387ZM33.78 12.36s-.855 1.116-.932 1.168c-.077.053-.146.297.162.253a6.808 6.808 0 0 0 1.044-.244c.094-.052.06-.175-.103-.157-.163.017-.582.044-.855.096l.727-1.108s.025-.105-.043-.009ZM31.095 17.69c.396-.178.724-.485.932-.873.24-.575 0-.794-.377-.872a2.061 2.061 0 0 0-1.496.297c-.334.322-.29.636 0 .872.289.231.605.425.94.576Z" fill="#000"/><path d="M30.787 18.79a1.783 1.783 0 0 1-.394.523c-.243.2-.543.316-.855.331-.47.047-.942-.09-1.317-.384a1.72 1.72 0 0 1-.453-.392.855.855 0 0 0-.308-.218s.642 3.585 2.198 4.161c1.556.576 1.847-.663 1.89-.994a4.99 4.99 0 0 0-.701-2.827c0-.262-.018-.087-.06-.2Z" fill="#F06351"/><path d="M29.333 19.784c-.4-.059-.785-.2-1.13-.414a3.016 3.016 0 0 1-.88-.834.132.132 0 0 1 0-.174.119.119 0 0 1 .132-.027.12.12 0 0 1 .04.027c.21.303.48.56.79.756.309.196.654.327 1.014.387a1.78 1.78 0 0 0 .804-.264c.244-.152.449-.36.598-.609l.12-.166.085.192s.325.663.856.698c.53.035.906-.366 1.393-1.125a.121.121 0 0 1 .171-.035.128.128 0 0 1 .034.174c-.57.855-1.108 1.265-1.616 1.23a1.309 1.309 0 0 1-.55-.207 1.34 1.34 0 0 1-.407-.43 1.946 1.946 0 0 1-.636.578c-.252.142-.531.225-.818.243Z" fill="#000"/><path d="M31.009 31.527c1.771 0 3.207-1.465 3.207-3.272 0-1.807-1.436-3.271-3.207-3.271s-3.207 1.464-3.207 3.271 1.436 3.272 3.207 3.272Z" fill="#FDC305"/><path d="m35.259 25.594-2.677 1.143.984-4.912-6.414 8.515 2.677-1.142-.984 4.92 6.414-8.524Zm-6.32 3.342 3.558-4.72-.693 3.49 1.71-.716-3.583 4.729.693-3.49-1.684.707ZM27.742 27.653a.968.968 0 0 0 .958-.977.968.968 0 0 0-.958-.977.968.968 0 0 0-.957.977c0 .54.428.977.957.977ZM33.318 31.195a.683.683 0 0 0 .676-.689c0-.38-.303-.69-.676-.69a.683.683 0 0 0-.675.69c0 .38.302.69.675.69ZM34.14 29.302c.164 0 .298-.137.298-.305a.302.302 0 0 0-.299-.306c-.165 0-.3.137-.3.306 0 .168.135.305.3.305Z" fill="#111"/><path d="M39.236 16.573a49.68 49.68 0 0 0-4.353 4.546 27.484 27.484 0 0 1-4.54 4.275c-.19-.463-1.395-1.326-1.395-1.326s-2.685-1.876-4.447-3.35a27.527 27.527 0 0 1-2.685-2.618l-1.71-.096c2.468 3.68 6.085 6.397 10.262 7.712.735-.122 2.805-1.631 4.353-2.861a49.809 49.809 0 0 0 5.13-5.156 5.597 5.597 0 0 0 .976-1.745c-.975.331-1.591.62-1.591.62ZM22.175 22.54s-3.258-1.256-4.456-1.596a3.158 3.158 0 0 0-1.789-.235 3.19 3.19 0 0 0-1.631.785 4.418 4.418 0 0 0-1.099 1.515 4.499 4.499 0 0 0-.38 1.844c.18.405.318.83.41 1.265.043.419-1.027.375-1.71.375-.685 0-.787-1.256-.249-2.73.42-1.135.942-2.227 1.557-3.264C8.168 22.977 0 28.7 0 28.7a38.402 38.402 0 0 1 7.004.21c4.49.462 4.276 4.074 4.276 4.074a32.466 32.466 0 0 1 4.815-.968c1.813-.123 1.94 1.85 1.94 1.85l.454 3.367c.688-.76 1.447-1.45 2.266-2.06a5.111 5.111 0 0 1 3.746-1.133l-2.326-11.5Z" fill="#F06351"/></symbol><symbol id="logo-text" viewBox="0 0 118 21"><path d="M1.42 19.22a7.92 7.92 0 0 1-1.4-5.06V6.84c-.13-1.8.36-3.6 1.38-5.1C2.33.57 3.92-.01 6.16 0c2.25 0 3.77.52 4.56 1.53a6.43 6.43 0 0 1 1.33 4.38v1.71H7.91V5.76c0-.49-.05-.98-.13-1.46a1.62 1.62 0 0 0-.47-.93 1.58 1.58 0 0 0-1.16-.36c-.3-.04-.6 0-.87.14a1.4 1.4 0 0 0-.63.6 5.2 5.2 0 0 0-.34 2.14v9.28a4.5 4.5 0 0 0 .39 2.14 1.52 1.52 0 0 0 1.45.71 1.33 1.33 0 0 0 1.4-.72c.25-.68.35-1.4.32-2.13v-1.95h4.14v1.69a6.93 6.93 0 0 1-1.23 4.5C9.9 20.47 8.38 21 6.21 21c-2.16 0-3.85-.59-4.79-1.78ZM17.7.28h4.76l4 20.48h-3.94l-.72-4.53h-3.32l-.8 4.5h-4.01L17.71.28Zm3.66 13.38L20.1 5.43l-1.25 8.23h2.51Zm8.18-10.3h-3.25V.28h10.75v3.08h-3.21v17.37h-4.3l.01-17.37Z" fill="var(--color-text)"/><path d="M45.46.28h8.15v2.13H48.4v6.75h4.23v2.02H48.4v7.5h5.26v2.05h-8.2V.28Zm10.56 0h2l6.02 13.58V.28h2.45v20.48h-1.88L58.6 6.8v13.93h-2.49L56.02.28Zm13.7 0h8.14v2.13h-5.21v6.75h4.27v2.02h-4.23v7.5h5.23v2.05h-8.2V.28Zm10.55 0h4.23a7.16 7.16 0 0 1 4.68 1.28c1 .85 1.5 2.23 1.5 4.15 0 2.6-.87 4.2-2.6 4.77l3 10.25h-2.84l-2.76-9.6h-2.27v9.6h-2.94V.28Zm4.01 8.78c.97.09 1.93-.18 2.7-.74a3.45 3.45 0 0 0 .83-2.65 5.56 5.56 0 0 0-.3-1.95 1.84 1.84 0 0 0-1-1.05 4.89 4.89 0 0 0-2.05-.34h-1.29V9.1l1.11-.04Zm10.34 10.16A8.82 8.82 0 0 1 93.35 14V7.18c-.03-1.32.13-2.64.5-3.9.3-.96.9-1.79 1.75-2.35a6.05 6.05 0 0 1 3.36-.82 5.41 5.41 0 0 1 4.19 1.44 6.69 6.69 0 0 1 1.28 4.51v.76h-2.75v-.63c.02-.76-.05-1.51-.18-2.26a2 2 0 0 0-.77-1.2 3.07 3.07 0 0 0-1.72-.4c-.65-.05-1.3.14-1.81.55-.42.38-.69.89-.77 1.44-.13.8-.19 1.61-.17 2.43v7.6a7.15 7.15 0 0 0 .59 3.36 2.83 2.83 0 0 0 2.26 1.03 2.9 2.9 0 0 0 2.22-1.11c.48-1.13.69-2.35.6-3.56v-1.44h-2.66v-2.02h5.31v10.12h-1.81l-.3-2.35a3.6 3.6 0 0 1-1.4 1.93 3.7 3.7 0 0 1-2.33.67 4.79 4.79 0 0 1-4.12-1.76Zm16.05-5.71L106.14.28h2.72l3.22 9.87 3.17-9.87H118l-4.5 13.23v7.22h-2.81l-.02-7.22Z"/></symbol><symbol id="sitting-cat"><circle cx="25" cy="28" r="25" fill="#68B738"/><g clip-path="url(#a)" filter="url(#b)"><path d="M35.203 0h-.195c-.33.187-.593.474-.75.82a8.028 8.028 0 0 0-.664 1.757.84.84 0 0 1-.761.691 3.77 3.77 0 0 0-2.69 1.948c-.372.661-.69 1.35-.952 2.062-.73 1.897-1.29 3.856-1.98 5.768-.324.872-.339.872-1.316.872-1.168 0-1.085-.18-1.1 1.108 0 .407.123.613.555.593.133 0 .334-.067.385.108.052.175-.123.252-.226.355a4.626 4.626 0 0 1-2.227 1.258c-.977.263-1.975.47-2.926.789-2.443.82-4.7 1.964-6.46 3.902a14.436 14.436 0 0 0-2.437 4.041c-1.888 4.454-2.803 9.145-3.513 13.882a97.062 97.062 0 0 0-.75 6.7C7.102 47.759 7 48.877 7 50h17.141a1.126 1.126 0 0 0-.118-.66 2.577 2.577 0 0 0-1.97-1.582c-.36-.083-.401-.191-.18-.475.36-.482.637-1.022.818-1.597.838-2.48 1.162-5.067 1.568-7.63.23-1.956.83-3.85 1.77-5.582a11.126 11.126 0 0 1 2.874-3.283c.427-.325.443-.325.515.227.051.366.061.742.087 1.113a48.166 48.166 0 0 1-.092 7.31 31.866 31.866 0 0 0-.078 5.67A38.826 38.826 0 0 0 30.503 50h6.84a2.79 2.79 0 0 0-2.18-2.289 4.62 4.62 0 0 0-1.934.103c-.309.073-.438 0-.463-.335a29.113 29.113 0 0 1 .514-8.154 91.803 91.803 0 0 0 1.574-9.371 9.163 9.163 0 0 1 1.172-3.609c.612-1.092 1.147-2.226 1.749-3.324a3.031 3.031 0 0 0 .216-2.676c-.139-.366-.273-.737-.442-1.087-.515-1.005-1.029-2-1.502-3.016-.252-.515-.196-.577.365-.593.838 0 .838 0 .854-.845v-.34c0-.356-.134-.552-.515-.516h-.781c-.355 0-.458-.149-.37-.515a3.217 3.217 0 0 1 2.638-2.284 11.291 11.291 0 0 1 3.404.222.513.513 0 0 0 .643-.33c.206-.515.432-1.03.664-1.546a.517.517 0 0 0-.052-.588c-1.646-2.093-3.43-4.046-5.863-5.299a.767.767 0 0 1-.452-.577 10.123 10.123 0 0 0-.653-2.144A1.803 1.803 0 0 0 35.203 0Z" fill="#000"/></g></symbol><symbol id="telegram"><path fill-rule="evenodd" d="M23.46 3.15c.18.15.27.38.23.61l-2.63 15.76a.66.66 0 0 1-1.01.44l-7.88-5.25a.66.66 0 0 1-.15-.96l2.61-3.26-4.36 2.9a.66.66 0 0 1-.65.05L4.36 10.8a.66.66 0 0 1 .08-1.2l18.38-6.57a.66.66 0 0 1 .64.11ZM6.33 10.32l3.53 1.77 7.56-5.04a.66.66 0 0 1 .88.96l-4.8 6 6.43 4.3 2.28-13.66-15.88 5.67Z" clip-rule="evenodd"/></symbol><symbol id="tick"><path d="M7 11.718 1.3 5.27.25 6.457 7 14.094 18.25 1.366 17.2.094 7 11.718Z" fill="#68B738"/></symbol><symbol id="vkontakte"><path d="M1 5.34c0-.86.52-1.32 1.55-1.38l3.97.02c.26 0 .44.13.53.38.4 1.26.86 2.34 1.37 3.25.5.92 1.17 1.97 1.99 3.16.07.15.18.23.34.23.13 0 .22-.06.3-.18l.07-.28.03-4.35c0-.3-.07-.5-.23-.6-.15-.1-.43-.18-.83-.23-.32-.05-.48-.23-.48-.55 0-.07 0-.12.02-.15.38-1.09 1.44-1.63 3.2-1.63l1.5-.03c.67 0 1.23.16 1.67.48.44.32.67.82.67 1.5v5.72c.12.08.24.12.34.12.27 0 .5-.15.7-.45 1.95-2.58 3-4.31 3.17-5.18 0-.02.01-.06.05-.13.12-.25.33-.47.61-.65.29-.19.53-.31.75-.38a.55.55 0 0 1 .24-.05h4.13l.26.03c.36 0 .63.16.83.47.07.1.12.21.15.33a2.4 2.4 0 0 1 .06.55v.18a6.11 6.11 0 0 1-.94 2.2c-.5.78-1.15 1.62-1.93 2.53-.79.9-1.27 1.5-1.47 1.78-.16.2-.24.39-.24.56 0 .13.07.28.21.45l3.9 4.63c.2.26.31.56.31.88 0 .38-.16.7-.48.95-.32.25-.7.4-1.14.43l-.46.02h-4.04c-.02 0-.06 0-.11.02a.86.86 0 0 1-.1.01c-.4 0-.76-.16-1.1-.48-.12-.13-.96-1.12-2.5-2.97a1.39 1.39 0 0 0-.38-.32 38.47 38.47 0 0 0-.53 2.24l-.08.42a1.4 1.4 0 0 1-1.12 1.06l-.37.02h-2.61c-1.48 0-2.95-.63-4.41-1.9a19.3 19.3 0 0 1-3.96-4.95 47.51 47.51 0 0 1-3.28-7.05A1.92 1.92 0 0 1 1 5.34Zm16.01 6.51c-.37 0-.7-.1-1.01-.29a.9.9 0 0 1-.45-.79V5c0-.34-.1-.58-.27-.72-.18-.14-.49-.21-.93-.21l-1.52.05c-.76 0-1.34.12-1.73.37.78.36 1.17.93 1.17 1.71v4.43a1.5 1.5 0 0 1-.53 1.04c-.32.28-.68.42-1.07.42-.53 0-.94-.24-1.22-.73a26.16 26.16 0 0 1-3.1-5.63l-.23-.66-3.55-.02c-.23 0-.36.01-.38.03-.03.03-.04.1-.04.22 0 .15.01.3.05.48l.56 1.4c1.49 3.64 3.11 6.51 4.86 8.6 1.75 2.1 3.47 3.15 5.16 3.15h2.66c.1 0 .19-.03.24-.09.05-.06.1-.17.13-.34l.06-.25.5-2.21c.15-.3.27-.5.38-.6.2-.2.42-.28.69-.28.43 0 .86.24 1.3.73l2.27 2.71c.14.22.3.33.45.33h4.4c.53 0 .8-.13.8-.38a.47.47 0 0 0-.08-.25l-3.87-4.55c-.3-.35-.45-.73-.45-1.13 0-.4.14-.8.43-1.16.23-.34.68-.9 1.34-1.67.67-.78 1.25-1.51 1.75-2.19.5-.68.82-1.3.98-1.85l.08-.33a.37.37 0 0 1-.02-.16c0-.07-.01-.14-.03-.19h-4.18c-.27.1-.48.25-.64.45L21.8 6c-.45 1.16-1.6 2.94-3.5 5.36-.36.33-.8.5-1.3.5Z"/></symbol><symbol id="walking-cat"><circle cx="134" cy="100" r="100" fill="#68B738"/><g clip-path="url(#a)"><path d="M246.236 55.514a30.402 30.402 0 0 1 9-9.2c2-1.4 3.2-1.4 4.4 1.2 1.6 3.8 3 7.8 1.8 12a4.59 4.59 0 0 0 .8 4.2c1.2 1.6 2.2 3.2 3.2 4.6a12.541 12.541 0 0 1 1.8 12.4 10.865 10.865 0 0 0-.4 6.2c.4 1.98.4 4.02 0 6a7.494 7.494 0 0 1-5.4 6.4 10.419 10.419 0 0 0-6.4 4c-.188.307-.453.56-.769.735-.315.176-.67.267-1.031.265-2.4.4-8.4-5-8.4-7.4v-1.2c.2-7.2-.2-7.8-6.8-10.8a8.783 8.783 0 0 1-3.6-2.4c-1.2-1.6-2.8-1.4-4.6-.8-1.8.6-2.8 1.8-2.6 3.8.604 4.841.804 9.725.6 14.6.014.556.15 1.103.4 1.6 6.2 9 8.6 19.6 11.6 29.8 2.4 7.8 6.8 12 14.8 12.6 1.281.102 2.551.302 3.8.6a8.318 8.318 0 0 1 6.8 6.4c1.4 4.2.6 5.2-3.6 5.2h-13a6.481 6.481 0 0 1-4.6-1.6 23.39 23.39 0 0 0-6.8-4 14.53 14.53 0 0 1-6.8-5.2 57.163 57.163 0 0 0-8-9c-5.6-5.8-11.6-11.4-16.8-17.4a22.77 22.77 0 0 1-6.4-15.2c0-1.8-.4-2.6-2.4-1.8a3.86 3.86 0 0 1-2 .6c-5.6 0-8.4 3.4-10.4 8.4-1.8 4.2-4.2 8.2-6.4 12.4a20.802 20.802 0 0 0-2 8.4c0 4.8 1.2 6.4 5.6 8 2.8 1 5.4 2 6.8 4.8 1.6 3.2 1.2 4-2.2 4.2h-13.6a3.762 3.762 0 0 1-3.8-2.2l-3.6-6a12.101 12.101 0 0 1-1.4-10.8c.866-3.473.934-7.097.2-10.6a16.842 16.842 0 0 1 3.4-14c1.2-1.4 1.2-2-.8-2.4a100.166 100.166 0 0 1-23.6-8.2.2.2 0 0 1-.2-.2c-6.4-2.4-7.6-2-9.4 4.6-1.6 5.6-3.2 11.2-4.4 17-1.4 6.4.2 12.4 2.2 18.4.8 2.4 3.2 2.2 5 2.8 4 1.2 7.4 2.8 9 7 1.4 3.2 1.2 3.6-2.2 3.6-3.4 0-6.8-.2-10.4 0a13.288 13.288 0 0 1-8.4-2.8c-9.6-6.4-12.4-16.2-13.2-26.8-.4-6.6-4-11.8-8.2-16.8-.8-1-1.6-1.4-2.8-.6a88.625 88.625 0 0 1-13.4 6 53.42 53.42 0 0 0-24.4 17.6 21.259 21.259 0 0 0-4.4 10.2c-.6 3.6.4 5.2 4 6.2s5.4 3 5.8 6.8c.2 1.6-.4 2.4-2 2.4h-16.2a3.301 3.301 0 0 1-2.6-1.6 17.121 17.121 0 0 1-3.8-11 101.19 101.19 0 0 1 1.8-20.6 12.6 12.6 0 0 1 6.8-9.6c11.8-5.6 18-16.2 23.6-27.2 1.2-2.2.2-2.6-1.8-2.4a32.94 32.94 0 0 0-15.4 6.4 141.23 141.23 0 0 0-16.6 14.2 33.342 33.342 0 0 1-20.6 9.8c-14.6.8-21.4-7.4-20.8-20.6a19.38 19.38 0 0 1 4.8-12.2 8.5 8.5 0 0 1 9-3c3 .8 3.8 2.4 2.6 5.4-.6 1.2-1.4 2.2-2 3.4a14.998 14.998 0 0 0-2 4c-2.2 6 .8 10.2 7 10.8 6.6.6 12-2.2 17-6.2a89.88 89.88 0 0 0 16-16.6 41.579 41.579 0 0 1 28.8-16.2c4.6-.6 8.6-2.6 13-3.8a83.014 83.014 0 0 1 25.4-3.6 25.996 25.996 0 0 0 11.6-2.2c9.8-4 20-4 30.2-2 8 1.6 16 3.6 23.8 5.6 4.642.865 9.415.728 14-.4a135.599 135.599 0 0 1 26.8-4 36.318 36.318 0 0 1 17.2 3.4c4 1.8 4 1.8 3 5.6Z" fill="#000"/></g></symbol><symbol id="youtube"><path d="m17.85 10.8-5.24-3.5a.65.65 0 0 0-1.01.55v6.98a.65.65 0 0 0 1.01.54l5.24-3.49a.65.65 0 0 0 0-1.09Zm-4.94 2.8V9.08l3.4 2.27-3.4 2.27Zm12.48-8.56a2.4 2.4 0 0 0-1.45-1.63C20.22 1.98 14.25 2 14 2s-6.22-.02-9.94 1.4a2.4 2.4 0 0 0-1.45 1.64 25.32 25.32 0 0 0-.61 6.3c0 3.26.33 5.22.61 6.3a2.4 2.4 0 0 0 1.45 1.63c3.72 1.43 9.69 1.4 9.94 1.4h.08c.75 0 6.31-.04 9.86-1.4a2.4 2.4 0 0 0 1.45-1.64c.28-1.07.61-3.03.61-6.3 0-3.25-.33-5.22-.61-6.29Zm-1.27 12.27a1.1 1.1 0 0 1-.65.74c-3.5 1.34-9.4 1.32-9.47 1.32-.07 0-5.98.02-9.47-1.32a1.09 1.09 0 0 1-.65-.74c-.27-1-.57-2.85-.57-5.97 0-3.12.3-4.97.57-5.97a1.1 1.1 0 0 1 .65-.74C8.03 3.29 13.93 3.3 14 3.3c.07 0 5.98-.02 9.47 1.32a1.1 1.1 0 0 1 .65.74c.27 1 .57 2.85.57 5.97 0 3.12-.3 4.96-.57 5.97Z"/></symbol></svg>