 <svg xmlns="http://www.w3.org/2000/svg">
    <symbol viewBox="0 0 28 22" id="vkontakte">
      <path d="M1 5.34c0-.86.52-1.32 1.55-1.38l3.97.02c.26 0 .44.13.53.38.4 1.26.86 2.34 1.37 3.25.5.92 1.17 1.97 1.99 3.16.07.15.18.23.34.23.13 0 .22-.06.3-.18l.07-.28.03-4.35c0-.3-.07-.5-.23-.6-.15-.1-.43-.18-.83-.23-.32-.05-.48-.23-.48-.55 0-.07 0-.12.02-.15.38-1.09 1.44-1.63 3.2-1.63l1.5-.03c.67 0 1.23.16 1.67.48.44.32.67.82.67 1.5v5.72c.12.08.24.12.34.12.27 0 .5-.15.7-.45 1.95-2.58 3-4.31 3.17-5.18 0-.02.01-.06.05-.13.12-.25.33-.47.61-.65.29-.19.53-.31.75-.38a.55.55 0 0 1 .24-.05h4.13l.26.03c.36 0 .63.16.83.47.07.1.12.21.15.33a2.4 2.4 0 0 1 .06.55v.18a6.11 6.11 0 0 1-.94 2.2c-.5.78-1.15 1.62-1.93 2.53-.79.9-1.27 1.5-1.47 1.78-.16.2-.24.39-.24.56 0 .13.07.28.21.45l3.9 4.63c.2.26.31.56.31.88 0 .38-.16.7-.48.95-.32.25-.7.4-1.14.43l-.46.02h-4.04c-.02 0-.06 0-.11.02a.86.86 0 0 1-.1.01c-.4 0-.76-.16-1.1-.48-.12-.13-.96-1.12-2.5-2.97a1.39 1.39 0 0 0-.38-.32 38.47 38.47 0 0 0-.53 2.24l-.08.42a1.4 1.4 0 0 1-1.12 1.06l-.37.02h-2.61c-1.48 0-2.95-.63-4.41-1.9a19.3 19.3 0 0 1-3.96-4.95 47.51 47.51 0 0 1-3.28-7.05A1.92 1.92 0 0 1 1 5.34Zm16.01 6.51c-.37 0-.7-.1-1.01-.29a.9.9 0 0 1-.45-.79V5c0-.34-.1-.58-.27-.72-.18-.14-.49-.21-.93-.21l-1.52.05c-.76 0-1.34.12-1.73.37.78.36 1.17.93 1.17 1.71v4.43a1.5 1.5 0 0 1-.53 1.04c-.32.28-.68.42-1.07.42-.53 0-.94-.24-1.22-.73a26.16 26.16 0 0 1-3.1-5.63l-.23-.66-3.55-.02c-.23 0-.36.01-.38.03-.03.03-.04.1-.04.22 0 .15.01.3.05.48l.56 1.4c1.49 3.64 3.11 6.51 4.86 8.6 1.75 2.1 3.47 3.15 5.16 3.15h2.66c.1 0 .19-.03.24-.09.05-.06.1-.17.13-.34l.06-.25.5-2.21c.15-.3.27-.5.38-.6.2-.2.42-.28.69-.28.43 0 .86.24 1.3.73l2.27 2.71c.14.22.3.33.45.33h4.4c.53 0 .8-.13.8-.38a.47.47 0 0 0-.08-.25l-3.87-4.55c-.3-.35-.45-.73-.45-1.13 0-.4.14-.8.43-1.16.23-.34.68-.9 1.34-1.67.67-.78 1.25-1.51 1.75-2.19.5-.68.82-1.3.98-1.85l.08-.33a.37.37 0 0 1-.02-.16c0-.07-.01-.14-.03-.19h-4.18c-.27.1-.48.25-.64.45L21.8 6c-.45 1.16-1.6 2.94-3.5 5.36-.36.33-.8.5-1.3.5Z" />
    </symbol>
    <symbol viewBox="0 0 28 22" id="youtube">
      <path d="m17.85 10.8-5.24-3.5a.65.65 0 0 0-1.01.55v6.98a.65.65 0 0 0 1.01.54l5.24-3.49a.65.65 0 0 0 0-1.09Zm-4.94 2.8V9.08l3.4 2.27-3.4 2.27Zm12.48-8.56a2.4 2.4 0 0 0-1.45-1.63C20.22 1.98 14.25 2 14 2s-6.22-.02-9.94 1.4a2.4 2.4 0 0 0-1.45 1.64 25.32 25.32 0 0 0-.61 6.3c0 3.26.33 5.22.61 6.3a2.4 2.4 0 0 0 1.45 1.63c3.72 1.43 9.69 1.4 9.94 1.4h.08c.75 0 6.31-.04 9.86-1.4a2.4 2.4 0 0 0 1.45-1.64c.28-1.07.61-3.03.61-6.3 0-3.25-.33-5.22-.61-6.29Zm-1.27 12.27a1.1 1.1 0 0 1-.65.74c-3.5 1.34-9.4 1.32-9.47 1.32-.07 0-5.98.02-9.47-1.32a1.09 1.09 0 0 1-.65-.74c-.27-1-.57-2.85-.57-5.97 0-3.12.3-4.97.57-5.97a1.1 1.1 0 0 1 .65-.74C8.03 3.29 13.93 3.3 14 3.3c.07 0 5.98-.02 9.47 1.32a1.1 1.1 0 0 1 .65.74c.27 1 .57 2.85.57 5.97 0 3.12-.3 4.96-.57 5.97Z" />
    </symbol>
    <symbol viewBox="0 0 28 22" id="telegram">
      <path d="M23.46 3.15c.18.15.27.38.23.61l-2.63 15.76a.66.66 0 0 1-1.01.44l-7.88-5.25a.66.66 0 0 1-.15-.96l2.61-3.26-4.36 2.9a.66.66 0 0 1-.65.05L4.36 10.8a.66.66 0 0 1 .08-1.2l18.38-6.57a.66.66 0 0 1 .64.11ZM6.33 10.32l3.53 1.77 7.56-5.04a.66.66 0 0 1 .88.96l-4.8 6 6.43 4.3 2.28-13.66-15.88 5.67Z" clip-rule="evenodd" />
    </symbol>
    <symbol viewBox="0 0 27 34" id="html-academy-logo">
      <path d="M13.64.02 13.5 0 0 1.4v24.61L13.5 34 27 26.01V1.41L13.64 0Zm11.6 25L13.5 31.96 1.77 25.02v-10.1l11.68 6.93.02 1.25-8.02-4.75v1.23l8.04 4.8.02 1.3-8.05-4.76v1.22l8.04 4.81 8.12-4.83V16.9l3.62-2.15v10.26Zm0-11.57L22 15.33l-1.48.88-7.06-4.19-.01 1.23 6.04 3.57-.06.03-.13.07-.86.5-4.98-2.95-.01 1.22 3.93 2.33-.93.61-.02.01-2.97-1.74-.01 1.23 1.94 1.13-1.98 1.19L1.8 13.58l11.63-6.96 11.8 6.83Zm0-1.22L13.43 5.3 1.77 12.22V2.99L13.5 1.76 25.23 3v9.24Z" />
    </symbol>
    <symbol viewBox="0 0 118 22" id="logo-cat">

      <path d="M1.66417 19.6611C.633991 18.1469.141415 16.3356.264166 14.5129V7.07346C.134214 5.23739.619344 3.41016 1.64416 1.87575c.92667-1.183702 2.51-1.772246 4.75-1.765633 2.24.006613 3.75664.525722 4.55004 1.557333.9673 1.27839 1.4393 2.85902 1.33 4.45376v1.7458H8.13416V5.97242c-.00558-.4985-.04903-.99587-.13-1.48789-.05005-.35619-.21493-.68676-.47-.94234-.15746-.13394-.34026-.23539-.53772-.2984-.19747-.06302-.40562-.08635-.61228-.06861-.29679-.04394-.60002.00391-.86842.13703-.2684.13312-.48894.34504-.63158.60692-.26293.6966-.37866 1.4394-.34 2.18224v9.44313c-.04562.7478.08803 1.4957.39 2.1823.14428.2477.35838.4482.61599.5768.2576.1287.54748.1799.83401.1473.28156.0395.5685-.0102.8199-.142.2514-.1318.45442-.339.5801-.592.24189-.6979.34711-1.4353.31-2.1724v-1.9838h4.14004v1.716c.1218 1.6183-.3117 3.2299-1.23 4.5728-.88 1.0911-2.40003 1.6268-4.56003 1.6268s-3.85-.5952-4.78-1.8152ZM17.9148.397781h4.74l4 20.830519h-3.94l-.71-4.6025h-3.32l-.8 4.5728h-4l4.03-20.800819Zm3.65 13.609319-1.26-8.37193-1.25 8.37193h2.51ZM29.7255 3.53228h-3.24V.397781h10.72V3.53228h-3.2V21.1986h-4.29l.01-17.66632Z" />
      <path d="M45.6164.397781h8.13V2.56019h-5.2v6.87408h4.22v2.05333h-4.22v7.6279h5.25v2.0831h-8.18V.397781ZM56.1569.397781h2l6 13.817619V.397781h2.44V21.2283h-1.87l-6-14.20443V21.1986h-2.48l-.09-20.800819ZM69.8276.397781h8.12V2.56019h-5.2v6.87408h4.26v2.05333h-4.22v7.6279h5.22v2.0831h-8.18V.397781ZM80.3581.397779h4.22c1.6631-.132743 3.3192.328081 4.67 1.299431 1 .86298 1.49 2.27152 1.49 4.22562 0 2.64515-.8633 4.26197-2.59 4.85057l3 10.4252h-2.84l-2.75-9.7606h-2.27v9.7606h-2.93V.397779Zm4 8.927371c.9634.09246 1.9267-.17652 2.7-.75387.3143-.36891.5492-.7977.6902-1.25998.141-.46228.1852-.9483.1298-1.42815.0201-.67296-.078-1.34427-.29-1.98386-.0859-.23583-.2187-.45216-.3905-.63617s-.379-.33197-.6095-.43511c-.6491-.26419-1.3492-.38275-2.05-.34718h-1.29v6.884l1.11-.03968ZM94.6788 19.6611c-.9559-1.6004-1.3988-3.4511-1.27-5.3069V7.41073c-.0345-1.33994.1341-2.67742.5-3.96772.2888-.97005.9026-1.81335 1.74-2.39055 1.011-.60434 2.1812-.894545 3.36-.833223.7624-.071927 1.5312.022185 2.2532.275756.722.253571 1.38.660487 1.927 1.192297.959 1.3332 1.413 2.95992 1.28 4.59264v.77371h-2.75v-.64476c.019-.77116-.042-1.54221-.18-2.30128-.091-.48647-.362-.92162-.76-1.22007-.519-.30389-1.1187-.44561-1.7202-.40669-.6532-.05543-1.3025.14383-1.81.55548-.4147.39034-.6858.90714-.77 1.46805-.1267.81709-.1836 1.64333-.17 2.46991v7.72712c-.0794 1.1742.1228 2.3504.59 3.4321.2713.3327.6157.5994 1.0069.7798.3912.1804.8188.2697 1.2501.2611.4313-.0086.8552-.1149 1.2382-.3108.384-.1959.717-.4761.975-.8194.482-1.1441.69-2.3832.61-3.6205v-1.4681h-2.6602v-2.0533h5.3002v10.2963h-1.81l-.29-2.3906c-.229.7942-.723 1.4882-1.4 1.969-.677.4808-1.4984.7203-2.3302.6795-.7821.0684-1.5689-.0604-2.2874-.3742-.7186-.3139-1.3455-.8028-1.8226-1.4212ZM110.699 13.8583 106.169.397781h2.72l3.21 10.038319 3.16-10.038319h2.75l-4.5 13.460519v7.3403h-2.8l-.01-7.3403Z" fill="var(--color-logo-text)" />
    </symbol>
    <symbol viewBox="0 0 24 18" id="arrow-slider">
      <path d="M8 0 0 9l8 9V0ZM24 9l-8-9v18l8-9Z" />
    </symbol>
  </svg>
